<svg id="Ebene_2" data-name="Ebene 2" xmlns="http://www.w3.org/2000/svg" viewBox="0 0 295.53 75.45"><title>carplus_logo</title><rect x="253.59" y="14.7" width="41.94" height="41.94" rx="7.04" ry="7.04" style="fill:#ee3432"/><path d="M291.88,39.24c-4.07,1.39-10.31,2.54-14.37,3.9-5.94,2-6.81,5.17-6.81,7.92v5.57h2.66v-2c0-2.92,1.79-4,4.38-5s6.92-1.61,12.39-3.37a7.88,7.88,0,0,0,5.4-4.81V34.76C295.51,35.92,295,38.17,291.88,39.24Z" style="fill:#fff"/><path d="M263.48,44c-2.86-1.3-4.41-1.86-7.19-3.25a4.73,4.73,0,0,1-2.7-4.42v7.5a6.12,6.12,0,0,0,3.56,4.25c4.17,1.7,3.63,1.39,5.47,2.23s2.87,1.45,2.87,4.36v2h2.69V51.06C268.17,48.31,267.56,45.85,263.48,44Z" style="fill:#fff"/><path d="M279.47,26.9V20.24h-6.58a2.2,2.2,0,0,0-2.18,2.17v6.66h6.61A2.16,2.16,0,0,0,279.47,26.9Z" style="fill:#fff"/><path d="M279.47,31.61h-7c-1.21,0-1.73.94-1.73,2.11v6.69S279.47,41.44,279.47,31.61Z" style="fill:#fff"/><path d="M266.44,31.61h-7c0,9.83,8.76,8.8,8.76,8.8V33.72C268.17,32.55,267.65,31.61,266.44,31.61Z" style="fill:#fff"/><path d="M266,20.24h-6.58V26.9a2.16,2.16,0,0,0,2.15,2.18h6.61V22.41A2.2,2.2,0,0,0,266,20.24Z" style="fill:#fff"/><path d="M153.05,56.26V0h10.13V56.26Z" style="fill:#636466"/><path d="M191.74,57.09c-12,0-17.35-4.76-17.35-13.74V15.57h10.13V43.88c0,3.85,2.32,6.87,7.55,6.87a14.09,14.09,0,0,0,6.73-1.36V15.57h10.13V53.85C205.2,55.66,199.55,57.09,191.74,57.09Z" style="fill:#636466"/><path d="M229.36,56.94c-5.23,0-9.72-1.28-12.37-2.94l2.66-5.89A14.93,14.93,0,0,0,228,50.45c4.15,0,6.89-2.42,6.89-5.74,0-3.47-2-5.13-6.56-6.72-8.47-2.94-10.21-7.17-10.21-11.4,0-6.49,5.65-11.78,14.2-11.78A22.09,22.09,0,0,1,244,17.69L241.49,23a12.6,12.6,0,0,0-7.14-2.27c-4.15,0-6.39,2.49-6.39,5.36,0,3.32,2.74,5,6.64,6.42,8.72,3.17,10.71,7.25,10.71,12C245.31,51.2,239.16,56.94,229.36,56.94Z" style="fill:#636466"/><path d="M17.57,57C7.42,57,0,49.27,0,35.92S7.75,15.07,17.65,15.07c5.45,0,8.66,1.5,10.31,2.77L25.82,23a9.64,9.64,0,0,0-5.94-1.72c-6.85,0-9.73,5.62-9.73,14.48S13.53,50.4,19.72,50.4a9.66,9.66,0,0,0,6-1.8L28,54.22C26.23,55.72,22.93,57,17.57,57Z" style="fill:#636466"/><path d="M68.06,29c0-10.43-7.26-14-16.42-14a38.25,38.25,0,0,0-15.26,3.07l2.31,5.25a28.81,28.81,0,0,1,11.14-2.47c5.2,0,8.83,1.42,8.83,6.67v2.18C45.13,31,33.82,34,33.82,44.7c0,7.8,6,12.3,18.15,12.3,6.93,0,12.54-1.2,16.09-2.92ZM58.65,50.77a15.39,15.39,0,0,1-6,1.13c-5.86,0-9.32-2.25-9.32-7.5,0-7.35,5.86-9.23,15.34-10.28Z" style="fill:#636466"/><path d="M78.79,18V56.19L88.85,46.12v-24c2.31-1.2,6-1.35,9.41-.3l2-6.68C89,14.85,83.4,16,78.79,18Z" style="fill:#636466"/><path d="M133.45,35.73a23.9,23.9,0,0,1-1.24,8.18h10a26.63,26.63,0,0,0,1.3-8.48c0-13-7.89-20.61-20.92-20.61-7.14,0-12.12,1.28-15.53,2.94V31.12l10-10h0a14.31,14.31,0,0,1,5.23-.83C130.55,20.33,133.45,26,133.45,35.73Z" style="fill:#636466"/><path d="M117.09,47.45V26.89l-10,10V47.45H93.45l-9.18,9.18H107V75.45l10-.05V56.63h9s6-.69,9.54-3.28a16.93,16.93,0,0,0,5.05-5.91Z" style="fill:#9d9fa2"/></svg>